<svg xmlns="http://www.w3.org/2000/svg" width="14" height="14.5" viewBox="0 0 14 14.5">
  <g id="Group_3757" data-name="Group 3757" transform="translate(0 0.25)">
    <rect id="Rectangle_1993" data-name="Rectangle 1993" width="14" height="14" fill="#eae4bb" opacity="0"/>
    <path id="Path_2554" data-name="Path 2554" d="M5.3,0A5.016,5.016,0,0,0,3.261.431,5.43,5.43,0,0,0,1.572,1.579a5.555,5.555,0,0,0-1.142,1.7A5.064,5.064,0,0,0,0,5.332,5.185,5.185,0,0,0,.164,6.59,10.06,10.06,0,0,0,.547,7.807a8.4,8.4,0,0,0,.629,1.244q.41.684.731,1.155t.868,1.148q.547.677.848,1.032t.848.984q.164.191.246.273a.6.6,0,0,0,.1.1,1.371,1.371,0,0,0,.246.157A.721.721,0,0,0,5.4,14h.041a.882.882,0,0,0,.684-.355Q10.5,8.613,10.5,5.332A5.354,5.354,0,0,0,9.105,1.545,4.97,4.97,0,0,0,5.3,0Zm.164,13.057a.155.155,0,0,1-.055.055l-.055-.055-.232-.26q-.52-.6-.807-.937t-.807-.978q-.52-.643-.82-1.087T2,8.716a7.974,7.974,0,0,1-.608-1.148A8.088,8.088,0,0,1,1.025,6.46a4.605,4.605,0,0,1-.15-1.128,4.338,4.338,0,0,1,.6-2.222A4.491,4.491,0,0,1,3.1,1.477,4.266,4.266,0,0,1,5.3.875a4.709,4.709,0,0,1,1.928.376A3.535,3.535,0,0,1,8.593,2.27a4.589,4.589,0,0,1,.772,1.422,5.154,5.154,0,0,1,.26,1.641Q9.625,8.285,5.469,13.057ZM5.264,2.639a2.56,2.56,0,0,0-.827.137,2.6,2.6,0,0,0-.725.376,2.789,2.789,0,0,0-.567.567,2.492,2.492,0,0,0-.376.725,2.618,2.618,0,0,0-.13.82,2.52,2.52,0,0,0,.772,1.859,2.546,2.546,0,0,0,1.859.766,2.523,2.523,0,0,0,1.853-.766,2.531,2.531,0,0,0,.766-1.859,2.591,2.591,0,0,0-.205-1.019,2.535,2.535,0,0,0-.561-.834,2.771,2.771,0,0,0-.841-.561A2.519,2.519,0,0,0,5.264,2.639Zm0,4.375A1.774,1.774,0,0,1,3.5,5.25,1.75,1.75,0,0,1,5.25,3.5,1.75,1.75,0,0,1,7,5.25,1.743,1.743,0,0,1,5.264,7.014Z" transform="translate(1.719 0)" fill="#eae4bb" stroke="#eae4bb" stroke-width="0.5"/>
  </g>
</svg>
