<svg xmlns="http://www.w3.org/2000/svg" width="14.389" height="14.39" viewBox="0 0 14.389 14.39">
  <path id="Path_110" data-name="Path 110" d="M7.6,9.35,9,8.064a.429.429,0,0,1,.351-.117l.234.117,3.272,1.519c.234.117.234.234.234.467a2.963,2.963,0,0,1-.935,2.1,3.348,3.348,0,0,1-2.454.935,7.121,7.121,0,0,1-3.272-.818A15.321,15.321,0,0,1,3.155,9.934,19.906,19.906,0,0,1,1.4,7.363,16.154,16.154,0,0,1,.234,4.792,7.192,7.192,0,0,1,0,2.571,3.071,3.071,0,0,1,.818.818,3.554,3.554,0,0,1,3.039,0a.607.607,0,0,1,.467.234L5.259,3.506a.408.408,0,0,0,.117.234.429.429,0,0,1-.117.351L3.74,5.493a.522.522,0,0,0,0,.584,11.16,11.16,0,0,0,1.4,1.87,11.8,11.8,0,0,0,1.87,1.519C7.246,9.583,7.48,9.583,7.6,9.35Z" transform="translate(0.65 0.65)" fill="none" stroke="#eae4bb" stroke-width="1.3"/>
</svg>
