<svg xmlns="http://www.w3.org/2000/svg" width="15.969" height="12.969" viewBox="0 0 15.969 12.969">
  <path id="Path_3904" data-name="Path 3904" d="M50.344,6.75a6.952,6.952,0,0,0,1.625-1.687,6.151,6.151,0,0,1-1.875.5A3.206,3.206,0,0,0,51.531,3.75a6.93,6.93,0,0,1-2.062.813,3.294,3.294,0,0,0-5.688,2.25,3.082,3.082,0,0,0,.094.75,9.52,9.52,0,0,1-6.781-3.437,3.191,3.191,0,0,0-.438,1.656A3.229,3.229,0,0,0,38.125,8.5a3.46,3.46,0,0,1-1.5-.406v.031a3.285,3.285,0,0,0,2.625,3.219,3.669,3.669,0,0,1-.844.125,4.23,4.23,0,0,1-.625-.063,3.265,3.265,0,0,0,3.063,2.281,6.6,6.6,0,0,1-4.063,1.406A6.078,6.078,0,0,1,36,15.031,9.142,9.142,0,0,0,41.031,16.5a9.231,9.231,0,0,0,9.313-9.312Z" transform="translate(-36 -3.531)" fill="#b5b5b5"/>
</svg>
