<svg xmlns="http://www.w3.org/2000/svg" width="16" height="16" viewBox="0 0 16 16">
  <g id="Group" fill="none" fill-rule="evenodd">
    <path d="M1.333,16A1.306,1.306,0,0,1,0,14.667C0,13.333,1.333,9.8,8,9.8s8,3.534,8,4.867A1.306,1.306,0,0,1,14.667,16ZM8,8A4,4,0,1,0,5.172,6.828,4,4,0,0,0,8,8Z" stroke="none"/>
    <path d="M 14.48549270629883 14.5 C 14.42649459838867 14.12212753295898 14.1746129989624 13.45833492279053 13.49647998809814 12.84794044494629 C 12.37104034423828 11.83491992950439 10.47039031982422 11.29946041107178 8 11.29946041107178 C 5.529610157012939 11.29946041107178 3.628950119018555 11.83491992950439 2.503520011901855 12.84794044494629 C 1.825386524200439 13.45833492279053 1.573505401611328 14.12212753295898 1.514507412910461 14.5 L 14.48549270629883 14.5 M 8 6.5 C 8.667770385742188 6.5 9.29557991027832 6.239950180053711 9.767760276794434 5.76777982711792 C 10.23995018005371 5.29557991027832 10.5 4.667769908905029 10.5 4 C 10.5 3.332230091094971 10.23995018005371 2.70442008972168 9.767780303955078 2.232239961624146 C 9.29557991027832 1.760050058364868 8.667770385742188 1.5 8 1.5 C 7.332230091094971 1.5 6.70442008972168 1.760050058364868 6.232240200042725 2.232219934463501 C 5.760049819946289 2.70442008972168 5.5 3.332230091094971 5.5 4 C 5.5 4.667769908905029 5.760049819946289 5.29557991027832 6.23222017288208 5.767759799957275 C 6.70442008972168 6.239950180053711 7.332230091094971 6.5 8 6.5 M 14.66666030883789 16 L 1.333330035209656 16 C 1.333330035209656 16 0 16 0 14.66666030883789 C 0 13.33333015441895 1.333330035209656 9.799460411071777 8 9.799460411071777 C 14.66666030883789 9.799460411071777 16 13.33333015441895 16 14.66666030883789 C 16 16 14.66666030883789 16 14.66666030883789 16 Z M 8 8 C 6.939129829406738 8 5.921720027923584 7.578569889068604 5.17156982421875 6.82843017578125 C 4.421430110931396 6.078279972076416 4 5.060870170593262 4 4 C 4 2.939130067825317 4.421430110931396 1.921720027923584 5.17156982421875 1.17156994342804 C 5.921720027923584 0.4214299917221069 6.939129829406738 0 8 0 C 9.060870170593262 0 10.07828044891357 0.4214299917221069 10.82843017578125 1.17156994342804 C 11.57857036590576 1.921720027923584 12 2.939130067825317 12 4 C 12 5.060870170593262 11.57857036590576 6.078279972076416 10.82843017578125 6.82843017578125 C 10.07828044891357 7.578569889068604 9.060870170593262 8 8 8 Z" stroke="none" fill="#686868"/>
  </g>
</svg>
