<svg xmlns="http://www.w3.org/2000/svg" width="17.093" height="12" viewBox="0 0 17.093 12">
  <path id="Path_3906" data-name="Path 3906" d="M123.156,5.906a2.125,2.125,0,0,0-1.5-1.531A48.472,48.472,0,0,0,115,4a48.888,48.888,0,0,0-6.688.375,2.128,2.128,0,0,0-1.5,1.531,21.244,21.244,0,0,0-.374,4.125,21.418,21.418,0,0,0,.374,4.125,2.086,2.086,0,0,0,1.5,1.5A53.28,53.28,0,0,0,115,16a52.825,52.825,0,0,0,6.656-.344,2.083,2.083,0,0,0,1.5-1.5,21.362,21.362,0,0,0,.375-4.125A21.188,21.188,0,0,0,123.156,5.906Zm-9.906,6.656V7.5l4.438,2.531Z" transform="translate(-106.438 -4)" fill="#b5b5b5"/>
</svg>
